<?xml version="1.0" standalone="no"?>
<!DOCTYPE svg PUBLIC "-//W3C//DTD SVG 20010904//EN"
 "http://www.w3.org/TR/2001/REC-SVG-20010904/DTD/svg10.dtd">
<svg version="1.0" xmlns="http://www.w3.org/2000/svg"
 width="512.000000pt" height="512.000000pt" viewBox="0 0 512.000000 512.000000"
 preserveAspectRatio="xMidYMid meet">
<metadata>
Created by potrace 1.15, written by Peter Selinger 2001-2017
</metadata>
<g transform="translate(0.000000,512.000000) scale(0.100000,-0.100000)"
fill="#000000" stroke="none">
<path d="M1525 5010 c-4 -7 -18 -10 -31 -7 -23 4 -24 1 -24 -44 0 -52 5 -56
98 -74 26 -5 34 -13 39 -36 3 -16 9 -32 14 -35 4 -2 6 -11 2 -19 -3 -8 -1 -15
3 -15 5 0 9 -15 10 -32 1 -18 8 -51 17 -73 27 -72 66 -316 73 -465 4 -89 11
-148 18 -152 7 -5 6 -8 -5 -8 -11 0 -15 -10 -15 -42 1 -42 2 -43 36 -44 19 0
40 -1 46 -2 13 -2 38 -117 29 -131 -3 -5 -19 -12 -35 -16 -20 -4 -30 -13 -30
-25 0 -10 -11 -25 -24 -33 -22 -15 -24 -23 -23 -82 2 -52 6 -69 19 -76 14 -8
16 -7 12 6 -3 8 -2 15 3 15 9 0 17 -31 58 -225 20 -95 22 -112 9 -126 -17 -19
-21 -264 -3 -274 7 -5 8 5 3 30 -6 32 -4 37 15 42 11 3 21 10 21 15 0 5 4 7 8
4 10 -6 -8 -146 -18 -146 -4 0 -10 9 -13 20 -3 11 -10 20 -16 20 -7 0 -11 -31
-11 -87 0 -109 -13 -161 -48 -192 -15 -13 -21 -20 -14 -17 6 4 12 3 12 -3 0
-14 -20 -19 -60 -14 -26 2 -30 1 -16 -5 19 -8 18 -9 -5 -15 -34 -10 -46 -8
-29 3 12 8 11 10 -6 10 -12 0 -24 -7 -28 -15 -3 -8 -15 -15 -26 -15 -12 0 -18
5 -15 10 7 12 -40 12 -75 -1 -24 -8 -24 -9 3 -5 41 5 19 -11 -25 -19 -25 -5
-38 -4 -38 4 0 6 5 11 12 11 6 0 8 3 4 7 -8 8 -110 6 -189 -3 -36 -5 -47 -10
-43 -20 5 -14 -1 -16 -59 -18 -19 -1 -20 -9 -22 -154 -3 -168 6 -202 52 -202
19 0 22 -4 18 -21 -6 -20 -3 -21 53 -15 96 9 158 17 174 22 8 3 65 7 125 8 65
1 119 6 132 14 12 6 45 12 73 12 l52 0 -5 -47 c-2 -27 -8 -59 -12 -72 -5 -16
-5 -22 2 -18 6 4 13 -12 17 -40 10 -74 8 -93 -9 -87 -10 4 -15 0 -15 -11 0
-15 -3 -15 -20 5 -11 13 -20 30 -21 39 0 10 -2 12 -6 3 -2 -6 11 -40 30 -75
36 -63 42 -78 31 -76 -3 0 -14 -9 -23 -20 -10 -12 -26 -21 -35 -21 -18 0 -22
-15 -6 -25 6 -3 10 -10 10 -14 0 -10 -46 -31 -68 -31 -10 0 -22 -10 -27 -22
-14 -32 -37 -33 -84 -4 -81 51 -90 128 -16 142 21 4 35 12 35 21 0 8 18 33 40
55 22 23 40 46 40 52 0 6 16 20 35 30 20 11 32 23 27 28 -5 5 -21 2 -38 -7
-16 -8 -55 -24 -86 -36 -46 -16 -64 -30 -93 -68 -30 -42 -35 -56 -35 -105 0
-82 27 -132 107 -203 132 -115 254 -201 347 -242 23 -10 61 -30 85 -45 l44
-28 -6 -121 c-2 -67 -15 -171 -27 -231 -20 -99 -22 -132 -18 -375 3 -264 3
-266 29 -321 15 -30 36 -76 47 -103 25 -57 37 -62 161 -71 52 -4 103 -12 114
-18 11 -5 83 -16 161 -24 78 -7 195 -20 261 -28 132 -17 574 -20 660 -6 42 8
37 8 -30 4 -56 -3 -75 -1 -65 6 8 5 11 10 5 10 -5 0 -4 4 4 9 11 7 14 31 12
102 -1 51 -6 100 -11 109 -10 18 -3 60 10 60 5 0 16 7 24 16 9 9 23 17 32 18
9 1 19 7 22 13 4 6 42 18 86 26 43 9 86 23 95 31 9 7 32 17 51 21 46 10 55 16
39 27 -9 5 -4 6 15 2 15 -4 31 -3 35 2 3 5 39 20 79 33 40 13 76 29 81 35 8
10 12 78 26 386 7 141 22 264 42 350 14 55 15 110 9 365 -6 301 -12 364 -42
442 -14 37 -21 43 -56 50 -35 7 -43 15 -70 63 -16 30 -73 120 -127 200 -132
196 -151 230 -144 261 2 14 -2 41 -10 60 l-15 34 -7 -32 c-9 -38 -15 -40 -39
-14 -15 17 -16 30 -5 152 l12 134 -32 56 c-35 63 -39 117 -20 254 8 58 7 80
-2 91 -10 13 -14 12 -29 -1 -12 -11 -20 -13 -25 -6 -3 6 0 11 8 11 29 0 39 26
27 69 -6 23 -15 41 -20 41 -6 0 -10 6 -10 14 0 8 -8 21 -19 28 -24 17 -41 158
-19 158 10 0 19 26 28 78 23 125 17 147 -61 233 -26 29 -40 51 -76 120 -16 30
-36 52 -59 62 -41 20 -64 22 -65 5 0 -7 -2 -25 -3 -39 -1 -25 0 -26 26 -17 16
6 28 14 28 19 0 23 17 6 18 -18 8 -136 7 -148 -8 -148 -8 0 -23 15 -32 34 -25
50 -66 88 -101 95 -30 6 -32 9 -33 50 -1 61 -8 72 -53 95 l-40 21 -28 -40
c-15 -22 -33 -40 -39 -40 -6 0 -17 -7 -24 -15 -18 -21 -29 -19 -40 10 -6 14
-15 37 -21 52 -8 21 -12 24 -19 14 -8 -15 -67 -39 -112 -48 -15 -3 -26 -9 -23
-13 2 -4 -6 -5 -19 -3 -27 5 -200 -60 -231 -87 -20 -18 -133 -60 -159 -60 -8
0 -17 -7 -20 -16 -3 -8 -2 -12 4 -9 6 3 10 1 10 -4 0 -16 -19 -13 -36 4 -10
10 -35 15 -73 15 -35 0 -62 5 -68 13 -9 11 -63 257 -78 352 -7 46 -42 209 -51
243 -4 12 -10 22 -14 22 -9 0 -30 -46 -30 -67 0 -9 -8 -21 -17 -28 -12 -9 -18
-29 -19 -66 -1 -30 -3 -76 -4 -104 l-2 -50 -13 45 c-25 91 -54 226 -59 279 -3
30 -9 57 -13 60 -13 9 -14 80 -2 102 8 16 7 25 -5 38 -9 10 -16 25 -16 33 0
37 -12 48 -50 48 -21 0 -51 -5 -65 -10 -27 -10 -54 -3 -54 15 1 14 -18 18 -26
5z m1225 -1290 c-6 -11 -15 -20 -20 -20 -17 0 -11 -22 15 -56 13 -17 27 -52
31 -75 10 -67 36 -102 121 -162 34 -24 57 -51 78 -93 48 -94 69 -124 85 -122
10 2 16 17 18 43 4 65 11 85 30 85 24 -1 56 -49 54 -79 l-2 -26 22 24 c13 13
19 25 13 27 -23 10 -39 23 -33 29 9 9 48 -18 48 -33 0 -8 6 -12 13 -10 6 3 13
23 15 46 3 39 1 42 -30 50 -39 11 -48 7 -48 -19 0 -11 -4 -17 -10 -14 -31 19
6 61 49 55 9 -1 12 5 8 19 -8 32 20 33 48 0 24 -29 30 -50 27 -94 -1 -16 0
-17 7 -5 9 15 14 56 12 97 -1 12 -12 34 -26 49 -32 34 -23 45 10 14 50 -47 55
-125 13 -223 -25 -56 -20 -87 36 -241 43 -118 65 -155 110 -189 35 -27 57 -73
30 -63 -8 3 -14 1 -14 -4 0 -6 8 -10 18 -10 15 -1 15 -2 -3 -16 -46 -36 -408
-201 -432 -198 -7 1 -18 2 -25 3 -6 0 -1 9 10 20 12 10 19 20 16 23 -3 3 2 23
10 43 9 21 16 46 16 56 0 11 4 19 9 19 5 0 12 39 16 87 7 76 5 88 -10 99 -9 7
-14 17 -11 23 12 18 -29 31 -51 16 -11 -7 -49 -26 -85 -40 -53 -21 -71 -24
-87 -15 -12 6 -21 15 -21 20 0 6 -7 10 -15 10 -8 0 -15 -8 -15 -17 0 -27 -48
24 -52 55 -3 27 -8 30 -80 62 -64 27 -75 25 -69 -12 0 -5 -3 -8 -9 -8 -5 0
-10 -7 -10 -15 0 -8 -6 -15 -13 -15 -20 0 -28 11 -18 24 10 14 20 77 14 94 -8
21 -23 2 -23 -29 l0 -29 -101 0 c-55 0 -110 5 -121 11 -16 9 -26 7 -47 -8 -14
-11 -35 -23 -46 -27 -18 -7 -18 -5 3 17 12 13 22 36 22 51 0 15 12 47 26 72
21 36 31 44 55 44 27 0 30 4 50 70 11 39 23 70 25 70 14 0 44 -38 44 -55 0
-11 10 -26 22 -34 19 -12 23 -11 35 5 12 16 17 17 46 5 37 -15 38 -15 93 -13
32 2 50 10 80 37 21 19 46 37 56 41 27 8 20 64 -8 64 -8 0 -14 4 -14 10 0 5
-17 12 -37 15 -21 3 -56 11 -78 19 -28 9 -57 10 -95 5 -94 -14 -125 -21 -132
-32 -11 -17 -96 -16 -136 1 l-37 16 1 95 c1 88 3 97 23 107 12 6 22 15 21 20
-1 5 12 12 28 15 16 3 43 18 58 33 16 15 54 34 84 42 30 8 66 19 80 24 14 4
52 13 85 20 33 7 65 14 70 15 6 2 23 4 38 4 25 1 27 -1 17 -19z m-2 -953 l34
-42 -31 -8 c-17 -4 -31 -13 -31 -21 0 -7 -18 -19 -40 -26 -22 -7 -40 -17 -40
-22 0 -4 -25 -8 -55 -8 -31 0 -55 4 -55 10 0 17 33 47 55 52 16 3 19 10 17 39
-4 43 10 56 63 62 22 2 42 4 45 5 3 0 20 -18 38 -41z"/>
</g>
</svg>
